<mxfile host="Electron" agent="Mozilla/5.0 (Windows NT 10.0; Win64; x64) AppleWebKit/537.36 (KHTML, like Gecko) draw.io/24.7.17 Chrome/128.0.6613.36 Electron/32.0.1 Safari/537.36" version="24.7.17">
  <diagram name="Page-1" id="KojVv524Zxwe0iF0lzby">
    <mxGraphModel dx="488" dy="293" grid="1" gridSize="10" guides="1" tooltips="1" connect="1" arrows="1" fold="1" page="1" pageScale="1" pageWidth="850" pageHeight="1100" background="#ffffff" math="1" shadow="0">
      <root>
        <mxCell id="0" />
        <mxCell id="1" parent="0" />
        <mxCell id="7OvQre6OMqA1hdwGeb0_-4" value="$$\mathbf{Hx_p}$$" style="edgeStyle=orthogonalEdgeStyle;rounded=0;orthogonalLoop=1;jettySize=auto;html=1;" parent="1" source="7OvQre6OMqA1hdwGeb0_-1" target="7OvQre6OMqA1hdwGeb0_-3" edge="1">
          <mxGeometry x="-0.1339" y="20" relative="1" as="geometry">
            <mxPoint as="offset" />
          </mxGeometry>
        </mxCell>
        <mxCell id="7OvQre6OMqA1hdwGeb0_-1" value="$$\mathbf{H}$$" style="rounded=0;whiteSpace=wrap;html=1;" parent="1" vertex="1">
          <mxGeometry x="60" y="50" width="60" height="40" as="geometry" />
        </mxCell>
        <mxCell id="7OvQre6OMqA1hdwGeb0_-2" value="$$\mathbf{x_p}$$" style="endArrow=classic;html=1;rounded=0;" parent="1" edge="1">
          <mxGeometry x="-0.5949" y="20" width="50" height="50" relative="1" as="geometry">
            <mxPoint x="10" y="70" as="sourcePoint" />
            <mxPoint x="60" y="69.68" as="targetPoint" />
            <mxPoint as="offset" />
          </mxGeometry>
        </mxCell>
        <mxCell id="7OvQre6OMqA1hdwGeb0_-6" value="$$\mathbf{y_p}$$" style="edgeStyle=orthogonalEdgeStyle;rounded=0;orthogonalLoop=1;jettySize=auto;html=1;entryX=0.5;entryY=0;entryDx=0;entryDy=0;entryPerimeter=0;" parent="1" source="7OvQre6OMqA1hdwGeb0_-3" target="u9k5RLEiDLhx9-Q9xQ7--4" edge="1">
          <mxGeometry x="0.0824" y="20" relative="1" as="geometry">
            <mxPoint x="260" y="70" as="targetPoint" />
            <mxPoint as="offset" />
          </mxGeometry>
        </mxCell>
        <mxCell id="7OvQre6OMqA1hdwGeb0_-3" value="" style="verticalLabelPosition=bottom;verticalAlign=top;html=1;shape=mxgraph.flowchart.summing_function;" parent="1" vertex="1">
          <mxGeometry x="190" y="58.75" width="22.5" height="22.5" as="geometry" />
        </mxCell>
        <mxCell id="7OvQre6OMqA1hdwGeb0_-5" value="$$\mathbf{n}$$" style="endArrow=classic;html=1;rounded=0;" parent="1" edge="1">
          <mxGeometry x="-0.5897" y="-11" width="50" height="50" relative="1" as="geometry">
            <mxPoint x="200.87" y="10" as="sourcePoint" />
            <mxPoint x="200.87" y="58.75" as="targetPoint" />
            <mxPoint as="offset" />
          </mxGeometry>
        </mxCell>
        <mxCell id="u9k5RLEiDLhx9-Q9xQ7--1" value="$$\mathbf{\hat{H}}$$" style="rounded=0;whiteSpace=wrap;html=1;" parent="1" vertex="1">
          <mxGeometry x="60" y="130" width="60" height="40" as="geometry" />
        </mxCell>
        <mxCell id="u9k5RLEiDLhx9-Q9xQ7--3" value="$$\mathbf{x_p}$$" style="endArrow=classic;html=1;rounded=0;" parent="1" edge="1">
          <mxGeometry x="-0.5949" y="20" width="50" height="50" relative="1" as="geometry">
            <mxPoint x="10" y="149.94" as="sourcePoint" />
            <mxPoint x="60" y="149.62" as="targetPoint" />
            <mxPoint as="offset" />
          </mxGeometry>
        </mxCell>
        <mxCell id="u9k5RLEiDLhx9-Q9xQ7--7" value="$$\mathbf{e}$$" style="edgeStyle=orthogonalEdgeStyle;rounded=0;orthogonalLoop=1;jettySize=auto;html=1;" parent="1" source="u9k5RLEiDLhx9-Q9xQ7--4" edge="1">
          <mxGeometry x="-0.0105" y="22" relative="1" as="geometry">
            <mxPoint x="340" y="111.25" as="targetPoint" />
            <mxPoint x="-18" y="-21" as="offset" />
          </mxGeometry>
        </mxCell>
        <mxCell id="u9k5RLEiDLhx9-Q9xQ7--4" value="" style="verticalLabelPosition=bottom;verticalAlign=top;html=1;shape=mxgraph.flowchart.summing_function;" parent="1" vertex="1">
          <mxGeometry x="270" y="100" width="22.5" height="22.5" as="geometry" />
        </mxCell>
        <mxCell id="u9k5RLEiDLhx9-Q9xQ7--5" style="edgeStyle=orthogonalEdgeStyle;rounded=0;orthogonalLoop=1;jettySize=auto;html=1;entryX=0.5;entryY=1;entryDx=0;entryDy=0;entryPerimeter=0;" parent="1" source="u9k5RLEiDLhx9-Q9xQ7--1" target="u9k5RLEiDLhx9-Q9xQ7--4" edge="1">
          <mxGeometry relative="1" as="geometry" />
        </mxCell>
        <mxCell id="u9k5RLEiDLhx9-Q9xQ7--6" value="$$\mathbf{\hat{H}x_p}$$" style="edgeLabel;html=1;align=center;verticalAlign=middle;resizable=0;points=[];" parent="u9k5RLEiDLhx9-Q9xQ7--5" vertex="1" connectable="0">
          <mxGeometry x="-0.3595" y="-1" relative="1" as="geometry">
            <mxPoint x="-30" y="-29" as="offset" />
          </mxGeometry>
        </mxCell>
        <mxCell id="u9k5RLEiDLhx9-Q9xQ7--8" value="$$-$$" style="text;html=1;align=center;verticalAlign=middle;whiteSpace=wrap;rounded=0;" parent="1" vertex="1">
          <mxGeometry x="240" y="70" width="60" height="30" as="geometry" />
        </mxCell>
      </root>
    </mxGraphModel>
  </diagram>
</mxfile>
